<?xml version="1.0" encoding="utf-8"?>
<!-- Generator: Adobe Illustrator 16.0.4, SVG Export Plug-In . SVG Version: 6.00 Build 0)  -->
<!DOCTYPE svg PUBLIC "-//W3C//DTD SVG 1.1//EN" "http://www.w3.org/Graphics/SVG/1.1/DTD/svg11.dtd">
<svg version="1.1" id="Layer_1" xmlns="http://www.w3.org/2000/svg" xmlns:xlink="http://www.w3.org/1999/xlink" x="0px" y="0px"
	 width="500px" height="500px" viewBox="0 0 500 500" enable-background="new 0 0 500 500" xml:space="preserve">
<rect x="211.623" y="101.609" fill-rule="evenodd" clip-rule="evenodd" fill="#8C4D00" width="13.753" height="228.557"/>
<rect x="195.25" y="159.24" fill-rule="evenodd" clip-rule="evenodd" fill="#8C4D00" width="46.498" height="11.788"/>
<rect x="193.285" y="195.258" fill-rule="evenodd" clip-rule="evenodd" fill="#8C4D00" width="55.667" height="11.788"/>
<rect x="183.462" y="238.482" fill-rule="evenodd" clip-rule="evenodd" fill="#8C4D00" width="71.384" height="11.788"/>
<rect x="176.258" y="277.774" fill-rule="evenodd" clip-rule="evenodd" fill="#8C4D00" width="71.384" height="11.789"/>
<path fill-rule="evenodd" clip-rule="evenodd" fill="#A15900" d="M361.348,285.377c-84.666,38.817-166.888,55.018-246.663,52.267
	l34.845,42.181c51.5,7.117,103.154,11.249,159.551-3.668C339.16,338.361,353.294,310.932,361.348,285.377L361.348,285.377z"/>
<path fill-rule="evenodd" clip-rule="evenodd" fill="#FFF675" d="M341.597,302.129c-87.752,34.188-130.454,38.683-206.84,41.017
	l24.486,37.893c51.5,7.117,87.072,9.118,143.469-5.799C294.857,340.034,329.201,328.547,341.597,302.129L341.597,302.129z"/>
<radialGradient id="SVGID_1_" cx="-14.7949" cy="780.5283" r="319.9816" gradientTransform="matrix(-0.4815 0 0 0.4815 285.3733 -61.8052)" gradientUnits="userSpaceOnUse">
	<stop  offset="0" style="stop-color:#FCE300"/>
	<stop  offset="1" style="stop-color:#BD7E00"/>
</radialGradient>
<path fill-rule="evenodd" clip-rule="evenodd" fill="url(#SVGID_1_)" d="M338.52,309.349
	c-85.698,36.754-122.589,38.424-200.095,40.216l22.032,32.688c51.5,7.118,82.665,7.904,139.062-7.013
	C324.527,338.713,322.557,336.881,338.52,309.349L338.52,309.349z"/>
<path fill-rule="evenodd" clip-rule="evenodd" fill="#238C00" d="M211.623,330.166c22.082-18.28,41.314-41.382,40.604-98.234
	c-7.896-41.476-21.47-82.952-34.71-124.43l185.989,163.07C334.968,302.268,271.891,330.006,211.623,330.166L211.623,330.166z"/>
<path fill-rule="evenodd" clip-rule="evenodd" fill="#F3FF94" d="M227.756,322.962c66.736-50.339,20.811-138.892,2.301-194.93
	l143.072,138.611C304.279,297.098,286.127,315.211,227.756,322.962L227.756,322.962z"/>
<path fill-rule="evenodd" clip-rule="evenodd" fill="#238C00" d="M219.481,108.158l-51.082,229.867l-71.192,1.487
	C118.873,262.951,157.401,181.338,219.481,108.158L219.481,108.158z"/>
<path fill-rule="evenodd" clip-rule="evenodd" fill="#EFFF7A" d="M202.277,144.626l-44.069,183.25l-49.404-0.33
	C136.525,257.881,159.063,197.717,202.277,144.626L202.277,144.626z"/>
<linearGradient id="SVGID_2_" gradientUnits="userSpaceOnUse" x1="-126.1836" y1="1124.3008" x2="41.2904" y2="780.9283" gradientTransform="matrix(-0.4815 0 0 0.4815 132.3743 -213.4841)">
	<stop  offset="0" style="stop-color:#53A600"/>
	<stop  offset="1" style="stop-color:#EBFFA1"/>
</linearGradient>
<path fill-rule="evenodd" clip-rule="evenodd" fill="url(#SVGID_2_)" d="M193.777,162.84
	c-21.866,53.581-41.332,109.861-44.004,163.442l-37.934,1.265C138.931,267.221,152.897,229.704,193.777,162.84L193.777,162.84z"/>
<radialGradient id="SVGID_3_" cx="-370.4614" cy="444.9824" r="259.8312" gradientTransform="matrix(-0.4815 0 0 0.4815 135.6487 -17.0164)" gradientUnits="userSpaceOnUse">
	<stop  offset="0" style="stop-color:#E1FF7F"/>
	<stop  offset="0.52" style="stop-color:#2FA81F"/>
	<stop  offset="1" style="stop-color:#27A800"/>
</radialGradient>
<path fill-rule="evenodd" clip-rule="evenodd" fill="url(#SVGID_3_)" d="M239.998,322.351
	c58.879-45.305,30.229-133.678-0.214-176.208L374.77,267.834C308.082,297.86,302.103,305.088,239.998,322.351L239.998,322.351z"/>
<ellipse fill-rule="evenodd" clip-rule="evenodd" fill="#A15900" cx="296.809" cy="341.057" rx="14.175" ry="14.742"/>
<linearGradient id="SVGID_4_" gradientUnits="userSpaceOnUse" x1="-200.9883" y1="753.8594" x2="-180.8157" y2="806.4106" gradientTransform="matrix(-0.3129 0 0 0.3008 237.0764 105.8257)">
	<stop  offset="0" style="stop-color:#0095FF"/>
	<stop  offset="1" style="stop-color:#FFFFFF"/>
</linearGradient>
<circle fill-rule="evenodd" clip-rule="evenodd" fill="url(#SVGID_4_)" cx="296.809" cy="340.49" r="8.505"/>
<ellipse fill-rule="evenodd" clip-rule="evenodd" fill="#A15900" cx="254.056" cy="351.472" rx="10.18" ry="10.587"/>
<linearGradient id="SVGID_5_" gradientUnits="userSpaceOnUse" x1="-266.9971" y1="782.0732" x2="-246.8301" y2="834.6099" gradientTransform="matrix(-0.2247 0 0 0.2161 196.3273 176.3826)">
	<stop  offset="0" style="stop-color:#0095FF"/>
	<stop  offset="1" style="stop-color:#FFFFFF"/>
</linearGradient>
<circle fill-rule="evenodd" clip-rule="evenodd" fill="url(#SVGID_5_)" cx="254.056" cy="351.065" r="6.108"/>
<ellipse fill-rule="evenodd" clip-rule="evenodd" fill="#A15900" cx="214.138" cy="357.337" rx="8.814" ry="9.167"/>
<linearGradient id="SVGID_6_" gradientUnits="userSpaceOnUse" x1="-301.6377" y1="799.415" x2="-281.4704" y2="851.9526" gradientTransform="matrix(-0.1945 0 0 0.1871 157.4305 202.4993)">
	<stop  offset="0" style="stop-color:#0095FF"/>
	<stop  offset="1" style="stop-color:#FFFFFF"/>
</linearGradient>
<circle fill-rule="evenodd" clip-rule="evenodd" fill="url(#SVGID_6_)" cx="214.138" cy="356.985" r="5.289"/>
<ellipse fill-rule="evenodd" clip-rule="evenodd" fill="#A15900" cx="159.345" cy="356.463" rx="5.931" ry="6.167"/>
<linearGradient id="SVGID_7_" gradientUnits="userSpaceOnUse" x1="-436.2197" y1="860.7383" x2="-416.0559" y2="913.2668" gradientTransform="matrix(-0.1309 0 0 0.1259 103.5632 244.5527)">
	<stop  offset="0" style="stop-color:#0095FF"/>
	<stop  offset="1" style="stop-color:#FFFFFF"/>
</linearGradient>
<circle fill-rule="evenodd" clip-rule="evenodd" fill="url(#SVGID_7_)" cx="159.345" cy="356.226" r="3.558"/>
<ellipse fill-rule="evenodd" clip-rule="evenodd" fill="#A15900" cx="185.451" cy="358.005" rx="6.538" ry="6.799"/>
<linearGradient id="SVGID_8_" gradientUnits="userSpaceOnUse" x1="-398.5938" y1="848.6514" x2="-378.4181" y2="901.2109" gradientTransform="matrix(-0.1443 0 0 0.1387 129.3882 236.3907)">
	<stop  offset="0" style="stop-color:#0095FF"/>
	<stop  offset="1" style="stop-color:#FFFFFF"/>
</linearGradient>
<circle fill-rule="evenodd" clip-rule="evenodd" fill="url(#SVGID_8_)" cx="185.451" cy="357.744" r="3.922"/>
<path fill-rule="evenodd" clip-rule="evenodd" fill="#00A2FF" d="M147.049,391.526l120.387-1.009
	c24.078,0,53.137,7.066,78.044,7.066c6.642,0,7.472,1.01,7.472-7.066c0-2.02-9.132-3.029-9.132-14.136
	c0-13.125-9.134,3.029-9.964,4.039c-2.49,3.028-0.83-15.145-5.811-15.145c-16.605,0-8.303,24.231-26.568-9.087
	c-11.623-22.212,2.49,13.126-14.114-7.067c-8.303-10.097-16.605-16.154-28.229-16.154c-1.66,0,11.624,14.135,11.624,20.192
	c0,10.097-2.491,5.049-11.624,5.049c-2.49,0,1.661,8.077,1.661,8.077c2.491,7.067-9.133,1.009-4.981,11.105
	c3.32,8.077-46.494-1.01-54.797-1.01c-11.624,0-22.417,7.067-35.701,7.067C149.54,383.449,146.219,371.334,147.049,391.526
	L147.049,391.526z"/>
<path fill-rule="evenodd" clip-rule="evenodd" fill="#9EE2FF" d="M290.246,383.635c-1.475,0-5.161,0-6.636,0
	c-2.212,0-8.109-10.759-9.584-14.345c-0.737-2.689-0.737-5.379,2.212-5.379c1.475,0,5.16-0.897,5.16,1.793v0.896
	c0,3.586-1.475-7.173-1.475-7.173s-4.423-14.345-2.211-14.345c2.211,0,5.897,8.966,7.372,9.862c2.212,0.896,4.424,5.379,5.897,7.172
	c1.475,1.794,2.949-4.482,3.687-4.482c2.212,0,8.11,12.552,8.847,14.345l7.373,9.862c0,0,6.635,4.482,5.898,6.275
	c-1.475,3.586-12.533-0.896-13.271-0.896C299.093,387.221,293.932,384.531,290.246,383.635L290.246,383.635z"/>
</svg>
